<svg xmlns="http://www.w3.org/2000/svg" xmlns:xlink="http://www.w3.org/1999/xlink" width="500" zoomAndPan="magnify" viewBox="0 0 375 374.999991" height="500" preserveAspectRatio="xMidYMid meet" version="1.0"><defs><g/><clipPath id="10d4bf7e5c"><path d="M 193 70 L 266.539062 70 L 266.539062 213 L 193 213 Z M 193 70 " clip-rule="nonzero"/></clipPath><clipPath id="1c4987fc25"><path d="M 108.289062 70 L 182 70 L 182 213 L 108.289062 213 Z M 108.289062 70 " clip-rule="nonzero"/></clipPath><clipPath id="614097ded7"><path d="M 175 210 L 199 210 L 199 241.425781 L 175 241.425781 Z M 175 210 " clip-rule="nonzero"/></clipPath></defs><rect x="-37.5" width="450" fill="#ffffff" y="-37.499999" height="449.999989" fill-opacity="1"/><rect x="-37.5" width="450" fill="#ffffff" y="-37.499999" height="449.999989" fill-opacity="1"/><g fill="#699992" fill-opacity="0.4"><g transform="translate(90.37417, 301.856114)"><g><path d="M 5.90625 -12.9375 C 7.570312 -12.9375 9.070312 -12.492188 10.40625 -11.609375 L 9.5 -9.703125 C 8.195312 -10.492188 6.941406 -10.890625 5.734375 -10.890625 C 5.085938 -10.890625 4.578125 -10.773438 4.203125 -10.546875 C 3.835938 -10.316406 3.65625 -9.988281 3.65625 -9.5625 C 3.65625 -9.132812 3.820312 -8.769531 4.15625 -8.46875 C 4.5 -8.164062 4.925781 -7.941406 5.4375 -7.796875 C 5.957031 -7.660156 6.515625 -7.484375 7.109375 -7.265625 C 7.710938 -7.054688 8.269531 -6.832031 8.78125 -6.59375 C 9.300781 -6.351562 9.726562 -5.976562 10.0625 -5.46875 C 10.394531 -4.96875 10.5625 -4.351562 10.5625 -3.625 C 10.5625 -2.5 10.113281 -1.597656 9.21875 -0.921875 C 8.320312 -0.253906 7.15625 0.078125 5.71875 0.078125 C 4.738281 0.078125 3.789062 -0.101562 2.875 -0.46875 C 1.957031 -0.84375 1.160156 -1.34375 0.484375 -1.96875 L 1.40625 -3.828125 C 2.0625 -3.234375 2.773438 -2.773438 3.546875 -2.453125 C 4.328125 -2.128906 5.066406 -1.96875 5.765625 -1.96875 C 6.515625 -1.96875 7.097656 -2.101562 7.515625 -2.375 C 7.941406 -2.644531 8.15625 -3.023438 8.15625 -3.515625 C 8.15625 -3.960938 7.984375 -4.332031 7.640625 -4.625 C 7.304688 -4.925781 6.878906 -5.144531 6.359375 -5.28125 C 5.847656 -5.425781 5.289062 -5.597656 4.6875 -5.796875 C 4.09375 -6.003906 3.535156 -6.21875 3.015625 -6.4375 C 2.503906 -6.664062 2.078125 -7.03125 1.734375 -7.53125 C 1.398438 -8.039062 1.234375 -8.648438 1.234375 -9.359375 C 1.234375 -10.441406 1.660156 -11.304688 2.515625 -11.953125 C 3.367188 -12.609375 4.5 -12.9375 5.90625 -12.9375 Z M 5.90625 -12.9375 "/></g></g></g><g fill="#699992" fill-opacity="0.4"><g transform="translate(103.341389, 301.856114)"><g><path d="M 10.453125 -10.890625 L 6.390625 -10.890625 L 6.390625 0 L 4.21875 0 L 4.21875 -10.890625 L 0.171875 -10.890625 L 0.171875 -12.84375 L 10.453125 -12.84375 Z M 10.453125 -10.890625 "/></g></g></g><g fill="#699992" fill-opacity="0.4"><g transform="translate(115.519996, 301.856114)"><g><path d="M 12.609375 -12.84375 L 12.609375 -5.3125 C 12.609375 -3.644531 12.109375 -2.328125 11.109375 -1.359375 C 10.117188 -0.390625 8.753906 0.09375 7.015625 0.09375 C 5.285156 0.09375 3.921875 -0.390625 2.921875 -1.359375 C 1.929688 -2.328125 1.4375 -3.644531 1.4375 -5.3125 L 1.4375 -12.84375 L 3.59375 -12.84375 L 3.59375 -5.3125 C 3.59375 -4.238281 3.898438 -3.394531 4.515625 -2.78125 C 5.140625 -2.164062 5.984375 -1.859375 7.046875 -1.859375 C 8.097656 -1.859375 8.925781 -2.160156 9.53125 -2.765625 C 10.132812 -3.378906 10.4375 -4.226562 10.4375 -5.3125 L 10.4375 -12.84375 Z M 12.609375 -12.84375 "/></g></g></g><g fill="#699992" fill-opacity="0.4"><g transform="translate(131.091479, 301.856114)"><g><path d="M 1.6875 -12.84375 L 6.953125 -12.84375 C 8.867188 -12.84375 10.453125 -12.234375 11.703125 -11.015625 C 12.960938 -9.804688 13.59375 -8.269531 13.59375 -6.40625 C 13.59375 -4.550781 12.960938 -3.019531 11.703125 -1.8125 C 10.441406 -0.601562 8.835938 0 6.890625 0 L 1.6875 0 Z M 3.859375 -10.890625 L 3.859375 -1.9375 L 7 -1.9375 C 8.257812 -1.9375 9.304688 -2.351562 10.140625 -3.1875 C 10.984375 -4.03125 11.40625 -5.097656 11.40625 -6.390625 C 11.40625 -7.691406 10.972656 -8.765625 10.109375 -9.609375 C 9.253906 -10.460938 8.191406 -10.890625 6.921875 -10.890625 Z M 3.859375 -10.890625 "/></g></g></g><g fill="#699992" fill-opacity="0.4"><g transform="translate(146.864698, 301.856114)"><g><path d="M 10.859375 -10.890625 L 3.859375 -10.890625 L 3.859375 -7.421875 L 10.125 -7.421875 L 10.125 -5.484375 L 3.859375 -5.484375 L 3.859375 -1.9375 L 11.078125 -1.9375 L 11.078125 0 L 1.6875 0 L 1.6875 -12.84375 L 10.859375 -12.84375 Z M 10.859375 -10.890625 "/></g></g></g><g fill="#699992" fill-opacity="0.4"><g transform="translate(160.455472, 301.856114)"><g><path d="M 12.828125 0 L 10.6875 0 L 3.859375 -9.203125 L 3.859375 0 L 1.6875 0 L 1.6875 -12.84375 L 3.8125 -12.84375 L 10.6875 -3.609375 L 10.6875 -12.84375 L 12.828125 -12.84375 Z M 12.828125 0 "/></g></g></g><g fill="#699992" fill-opacity="0.4"><g transform="translate(176.540474, 301.856114)"><g><path d="M 10.453125 -10.890625 L 6.390625 -10.890625 L 6.390625 0 L 4.21875 0 L 4.21875 -10.890625 L 0.171875 -10.890625 L 0.171875 -12.84375 L 10.453125 -12.84375 Z M 10.453125 -10.890625 "/></g></g></g><g fill="#699992" fill-opacity="0.4"><g transform="translate(188.719081, 301.856114)"><g><path d="M 10.21875 -16.03125 L 7.984375 -14.234375 L 6.109375 -14.234375 L 8.046875 -16.953125 Z M 2.578125 -11.03125 C 3.890625 -12.269531 5.503906 -12.890625 7.421875 -12.890625 C 9.347656 -12.890625 10.960938 -12.269531 12.265625 -11.03125 C 13.578125 -9.789062 14.234375 -8.253906 14.234375 -6.421875 C 14.234375 -4.585938 13.578125 -3.039062 12.265625 -1.78125 C 10.960938 -0.53125 9.347656 0.09375 7.421875 0.09375 C 5.503906 0.09375 3.890625 -0.53125 2.578125 -1.78125 C 1.273438 -3.039062 0.625 -4.585938 0.625 -6.421875 C 0.625 -8.253906 1.273438 -9.789062 2.578125 -11.03125 Z M 7.453125 -10.953125 C 6.179688 -10.953125 5.09375 -10.515625 4.1875 -9.640625 C 3.28125 -8.765625 2.828125 -7.691406 2.828125 -6.421875 C 2.828125 -5.148438 3.28125 -4.070312 4.1875 -3.1875 C 5.101562 -2.300781 6.191406 -1.859375 7.453125 -1.859375 C 8.710938 -1.859375 9.785156 -2.300781 10.671875 -3.1875 C 11.566406 -4.070312 12.015625 -5.148438 12.015625 -6.421875 C 12.015625 -7.691406 11.566406 -8.765625 10.671875 -9.640625 C 9.785156 -10.515625 8.710938 -10.953125 7.453125 -10.953125 Z M 7.453125 -10.953125 "/></g></g></g><g fill="#699992" fill-opacity="0.4"><g transform="translate(205.1342, 301.856114)"><g><path d="M 14.890625 0 L 12.671875 0 L 9.625 -10.015625 L 6.546875 0 L 4.3125 0 L 0.0625 -12.84375 L 2.390625 -12.84375 L 5.5 -2.40625 L 8.609375 -12.828125 L 10.734375 -12.84375 L 13.84375 -2.40625 L 16.953125 -12.84375 L 19.1875 -12.84375 Z M 14.890625 0 "/></g></g></g><g fill="#699992" fill-opacity="0.4"><g transform="translate(225.694127, 301.856114)"><g/></g></g><g fill="#699992" fill-opacity="0.4"><g transform="translate(231.985631, 301.856114)"><g><path d="M 14.890625 0 L 12.671875 0 L 9.625 -10.015625 L 6.546875 0 L 4.3125 0 L 0.0625 -12.84375 L 2.390625 -12.84375 L 5.5 -2.40625 L 8.609375 -12.828125 L 10.734375 -12.84375 L 13.84375 -2.40625 L 16.953125 -12.84375 L 19.1875 -12.84375 Z M 14.890625 0 "/></g></g></g><g fill="#699992" fill-opacity="0.4"><g transform="translate(252.545559, 301.856114)"><g><path d="M 9.984375 -2.890625 L 3.5 -2.890625 L 2.28125 0 L 0.015625 0 L 5.6875 -12.84375 L 7.90625 -12.84375 L 13.515625 0 L 11.203125 0 Z M 9.15625 -4.828125 L 6.734375 -10.53125 L 4.3125 -4.828125 Z M 9.15625 -4.828125 "/></g></g></g><g fill="#699992" fill-opacity="0.4"><g transform="translate(267.6402, 301.856114)"><g><path d="M 15.265625 0 L 13.265625 0 L 13.25 -9.59375 L 9.1875 -1.34375 L 7.78125 -1.34375 L 3.71875 -9.59375 L 3.71875 0 L 1.6875 0 L 1.6875 -12.84375 L 4.25 -12.84375 L 8.5 -4.3125 L 12.71875 -12.84375 L 15.265625 -12.84375 Z M 15.265625 0 "/></g></g></g><g fill="#38b6ff" fill-opacity="1"><g transform="translate(90.37417, 301.856114)"><g><path d="M 5.90625 -12.9375 C 7.570312 -12.9375 9.070312 -12.492188 10.40625 -11.609375 L 9.5 -9.703125 C 8.195312 -10.492188 6.941406 -10.890625 5.734375 -10.890625 C 5.085938 -10.890625 4.578125 -10.773438 4.203125 -10.546875 C 3.835938 -10.316406 3.65625 -9.988281 3.65625 -9.5625 C 3.65625 -9.132812 3.820312 -8.769531 4.15625 -8.46875 C 4.5 -8.164062 4.925781 -7.941406 5.4375 -7.796875 C 5.957031 -7.660156 6.515625 -7.484375 7.109375 -7.265625 C 7.710938 -7.054688 8.269531 -6.832031 8.78125 -6.59375 C 9.300781 -6.351562 9.726562 -5.976562 10.0625 -5.46875 C 10.394531 -4.96875 10.5625 -4.351562 10.5625 -3.625 C 10.5625 -2.5 10.113281 -1.597656 9.21875 -0.921875 C 8.320312 -0.253906 7.15625 0.078125 5.71875 0.078125 C 4.738281 0.078125 3.789062 -0.101562 2.875 -0.46875 C 1.957031 -0.84375 1.160156 -1.34375 0.484375 -1.96875 L 1.40625 -3.828125 C 2.0625 -3.234375 2.773438 -2.773438 3.546875 -2.453125 C 4.328125 -2.128906 5.066406 -1.96875 5.765625 -1.96875 C 6.515625 -1.96875 7.097656 -2.101562 7.515625 -2.375 C 7.941406 -2.644531 8.15625 -3.023438 8.15625 -3.515625 C 8.15625 -3.960938 7.984375 -4.332031 7.640625 -4.625 C 7.304688 -4.925781 6.878906 -5.144531 6.359375 -5.28125 C 5.847656 -5.425781 5.289062 -5.597656 4.6875 -5.796875 C 4.09375 -6.003906 3.535156 -6.21875 3.015625 -6.4375 C 2.503906 -6.664062 2.078125 -7.03125 1.734375 -7.53125 C 1.398438 -8.039062 1.234375 -8.648438 1.234375 -9.359375 C 1.234375 -10.441406 1.660156 -11.304688 2.515625 -11.953125 C 3.367188 -12.609375 4.5 -12.9375 5.90625 -12.9375 Z M 5.90625 -12.9375 "/></g></g></g><g fill="#38b6ff" fill-opacity="1"><g transform="translate(103.341389, 301.856114)"><g><path d="M 10.453125 -10.890625 L 6.390625 -10.890625 L 6.390625 0 L 4.21875 0 L 4.21875 -10.890625 L 0.171875 -10.890625 L 0.171875 -12.84375 L 10.453125 -12.84375 Z M 10.453125 -10.890625 "/></g></g></g><g fill="#38b6ff" fill-opacity="1"><g transform="translate(115.519996, 301.856114)"><g><path d="M 12.609375 -12.84375 L 12.609375 -5.3125 C 12.609375 -3.644531 12.109375 -2.328125 11.109375 -1.359375 C 10.117188 -0.390625 8.753906 0.09375 7.015625 0.09375 C 5.285156 0.09375 3.921875 -0.390625 2.921875 -1.359375 C 1.929688 -2.328125 1.4375 -3.644531 1.4375 -5.3125 L 1.4375 -12.84375 L 3.59375 -12.84375 L 3.59375 -5.3125 C 3.59375 -4.238281 3.898438 -3.394531 4.515625 -2.78125 C 5.140625 -2.164062 5.984375 -1.859375 7.046875 -1.859375 C 8.097656 -1.859375 8.925781 -2.160156 9.53125 -2.765625 C 10.132812 -3.378906 10.4375 -4.226562 10.4375 -5.3125 L 10.4375 -12.84375 Z M 12.609375 -12.84375 "/></g></g></g><g fill="#38b6ff" fill-opacity="1"><g transform="translate(131.091479, 301.856114)"><g><path d="M 1.6875 -12.84375 L 6.953125 -12.84375 C 8.867188 -12.84375 10.453125 -12.234375 11.703125 -11.015625 C 12.960938 -9.804688 13.59375 -8.269531 13.59375 -6.40625 C 13.59375 -4.550781 12.960938 -3.019531 11.703125 -1.8125 C 10.441406 -0.601562 8.835938 0 6.890625 0 L 1.6875 0 Z M 3.859375 -10.890625 L 3.859375 -1.9375 L 7 -1.9375 C 8.257812 -1.9375 9.304688 -2.351562 10.140625 -3.1875 C 10.984375 -4.03125 11.40625 -5.097656 11.40625 -6.390625 C 11.40625 -7.691406 10.972656 -8.765625 10.109375 -9.609375 C 9.253906 -10.460938 8.191406 -10.890625 6.921875 -10.890625 Z M 3.859375 -10.890625 "/></g></g></g><g fill="#38b6ff" fill-opacity="1"><g transform="translate(146.864698, 301.856114)"><g><path d="M 10.859375 -10.890625 L 3.859375 -10.890625 L 3.859375 -7.421875 L 10.125 -7.421875 L 10.125 -5.484375 L 3.859375 -5.484375 L 3.859375 -1.9375 L 11.078125 -1.9375 L 11.078125 0 L 1.6875 0 L 1.6875 -12.84375 L 10.859375 -12.84375 Z M 10.859375 -10.890625 "/></g></g></g><g fill="#38b6ff" fill-opacity="1"><g transform="translate(160.455472, 301.856114)"><g><path d="M 12.828125 0 L 10.6875 0 L 3.859375 -9.203125 L 3.859375 0 L 1.6875 0 L 1.6875 -12.84375 L 3.8125 -12.84375 L 10.6875 -3.609375 L 10.6875 -12.84375 L 12.828125 -12.84375 Z M 12.828125 0 "/></g></g></g><g fill="#38b6ff" fill-opacity="1"><g transform="translate(176.540474, 301.856114)"><g><path d="M 10.453125 -10.890625 L 6.390625 -10.890625 L 6.390625 0 L 4.21875 0 L 4.21875 -10.890625 L 0.171875 -10.890625 L 0.171875 -12.84375 L 10.453125 -12.84375 Z M 10.453125 -10.890625 "/></g></g></g><g fill="#38b6ff" fill-opacity="1"><g transform="translate(188.719081, 301.856114)"><g><path d="M 10.21875 -16.03125 L 7.984375 -14.234375 L 6.109375 -14.234375 L 8.046875 -16.953125 Z M 2.578125 -11.03125 C 3.890625 -12.269531 5.503906 -12.890625 7.421875 -12.890625 C 9.347656 -12.890625 10.960938 -12.269531 12.265625 -11.03125 C 13.578125 -9.789062 14.234375 -8.253906 14.234375 -6.421875 C 14.234375 -4.585938 13.578125 -3.039062 12.265625 -1.78125 C 10.960938 -0.53125 9.347656 0.09375 7.421875 0.09375 C 5.503906 0.09375 3.890625 -0.53125 2.578125 -1.78125 C 1.273438 -3.039062 0.625 -4.585938 0.625 -6.421875 C 0.625 -8.253906 1.273438 -9.789062 2.578125 -11.03125 Z M 7.453125 -10.953125 C 6.179688 -10.953125 5.09375 -10.515625 4.1875 -9.640625 C 3.28125 -8.765625 2.828125 -7.691406 2.828125 -6.421875 C 2.828125 -5.148438 3.28125 -4.070312 4.1875 -3.1875 C 5.101562 -2.300781 6.191406 -1.859375 7.453125 -1.859375 C 8.710938 -1.859375 9.785156 -2.300781 10.671875 -3.1875 C 11.566406 -4.070312 12.015625 -5.148438 12.015625 -6.421875 C 12.015625 -7.691406 11.566406 -8.765625 10.671875 -9.640625 C 9.785156 -10.515625 8.710938 -10.953125 7.453125 -10.953125 Z M 7.453125 -10.953125 "/></g></g></g><g fill="#38b6ff" fill-opacity="1"><g transform="translate(205.1342, 301.856114)"><g><path d="M 14.890625 0 L 12.671875 0 L 9.625 -10.015625 L 6.546875 0 L 4.3125 0 L 0.0625 -12.84375 L 2.390625 -12.84375 L 5.5 -2.40625 L 8.609375 -12.828125 L 10.734375 -12.84375 L 13.84375 -2.40625 L 16.953125 -12.84375 L 19.1875 -12.84375 Z M 14.890625 0 "/></g></g></g><g fill="#38b6ff" fill-opacity="1"><g transform="translate(225.694127, 301.856114)"><g/></g></g><g fill="#38b6ff" fill-opacity="1"><g transform="translate(231.985631, 301.856114)"><g><path d="M 14.890625 0 L 12.671875 0 L 9.625 -10.015625 L 6.546875 0 L 4.3125 0 L 0.0625 -12.84375 L 2.390625 -12.84375 L 5.5 -2.40625 L 8.609375 -12.828125 L 10.734375 -12.84375 L 13.84375 -2.40625 L 16.953125 -12.84375 L 19.1875 -12.84375 Z M 14.890625 0 "/></g></g></g><g fill="#38b6ff" fill-opacity="1"><g transform="translate(252.545559, 301.856114)"><g><path d="M 9.984375 -2.890625 L 3.5 -2.890625 L 2.28125 0 L 0.015625 0 L 5.6875 -12.84375 L 7.90625 -12.84375 L 13.515625 0 L 11.203125 0 Z M 9.15625 -4.828125 L 6.734375 -10.53125 L 4.3125 -4.828125 Z M 9.15625 -4.828125 "/></g></g></g><g fill="#38b6ff" fill-opacity="1"><g transform="translate(267.6402, 301.856114)"><g><path d="M 15.265625 0 L 13.265625 0 L 13.25 -9.59375 L 9.1875 -1.34375 L 7.78125 -1.34375 L 3.71875 -9.59375 L 3.71875 0 L 1.6875 0 L 1.6875 -12.84375 L 4.25 -12.84375 L 8.5 -4.3125 L 12.71875 -12.84375 L 15.265625 -12.84375 Z M 15.265625 0 "/></g></g></g><g fill="#004aad" fill-opacity="1"><g transform="translate(55.375108, 278.446153)"><g><path d="M 11.734375 0 L 6.90625 -6.484375 L 4.40625 -3.734375 L 4.40625 0 L 1.9375 0 L 1.9375 -14.703125 L 4.40625 -14.703125 L 4.40625 -7.09375 L 11.421875 -14.703125 L 14.34375 -14.703125 L 8.65625 -8.421875 L 14.71875 0 Z M 11.734375 0 "/></g></g></g><g fill="#004aad" fill-opacity="1"><g transform="translate(70.453167, 278.446153)"><g><path d="M 2.953125 -12.625 C 4.453125 -14.050781 6.300781 -14.765625 8.5 -14.765625 C 10.695312 -14.765625 12.546875 -14.050781 14.046875 -12.625 C 15.546875 -11.207031 16.296875 -9.445312 16.296875 -7.34375 C 16.296875 -5.25 15.546875 -3.484375 14.046875 -2.046875 C 12.546875 -0.609375 10.695312 0.109375 8.5 0.109375 C 6.300781 0.109375 4.453125 -0.609375 2.953125 -2.046875 C 1.460938 -3.484375 0.71875 -5.25 0.71875 -7.34375 C 0.71875 -9.445312 1.460938 -11.207031 2.953125 -12.625 Z M 8.53125 -12.53125 C 7.070312 -12.53125 5.820312 -12.03125 4.78125 -11.03125 C 3.75 -10.03125 3.234375 -8.800781 3.234375 -7.34375 C 3.234375 -5.894531 3.753906 -4.660156 4.796875 -3.640625 C 5.835938 -2.628906 7.078125 -2.125 8.515625 -2.125 C 9.960938 -2.125 11.195312 -2.628906 12.21875 -3.640625 C 13.238281 -4.660156 13.75 -5.894531 13.75 -7.34375 C 13.75 -8.800781 13.238281 -10.03125 12.21875 -11.03125 C 11.195312 -12.03125 9.96875 -12.53125 8.53125 -12.53125 Z M 8.53125 -12.53125 "/></g></g></g><g fill="#004aad" fill-opacity="1"><g transform="translate(87.46324, 278.446153)"><g><path d="M 11.125 -2.25 L 11.125 0 L 2.28125 0 L 2.28125 -7.734375 L 0.546875 -7.21875 L 0.125 -8.8125 L 2.28125 -9.453125 L 2.28125 -14.703125 L 4.75 -14.703125 L 4.75 -10.1875 L 8.109375 -11.171875 L 8.53125 -9.5625 L 4.75 -8.4375 L 4.75 -2.25 Z M 11.125 -2.25 "/></g></g></g><g fill="#004aad" fill-opacity="1"><g transform="translate(99.034292, 278.446153)"><g><path d="M 2.953125 -12.625 C 4.453125 -14.050781 6.300781 -14.765625 8.5 -14.765625 C 10.695312 -14.765625 12.546875 -14.050781 14.046875 -12.625 C 15.546875 -11.207031 16.296875 -9.445312 16.296875 -7.34375 C 16.296875 -5.25 15.546875 -3.484375 14.046875 -2.046875 C 12.546875 -0.609375 10.695312 0.109375 8.5 0.109375 C 6.300781 0.109375 4.453125 -0.609375 2.953125 -2.046875 C 1.460938 -3.484375 0.71875 -5.25 0.71875 -7.34375 C 0.71875 -9.445312 1.460938 -11.207031 2.953125 -12.625 Z M 8.53125 -12.53125 C 7.070312 -12.53125 5.820312 -12.03125 4.78125 -11.03125 C 3.75 -10.03125 3.234375 -8.800781 3.234375 -7.34375 C 3.234375 -5.894531 3.753906 -4.660156 4.796875 -3.640625 C 5.835938 -2.628906 7.078125 -2.125 8.515625 -2.125 C 9.960938 -2.125 11.195312 -2.628906 12.21875 -3.640625 C 13.238281 -4.660156 13.75 -5.894531 13.75 -7.34375 C 13.75 -8.800781 13.238281 -10.03125 12.21875 -11.03125 C 11.195312 -12.03125 9.96875 -12.53125 8.53125 -12.53125 Z M 8.53125 -12.53125 "/></g></g></g><g fill="#004aad" fill-opacity="1"><g transform="translate(116.044365, 278.446153)"><g/></g></g><g fill="#004aad" fill-opacity="1"><g transform="translate(121.462387, 278.446153)"><g><path d="M 1.9375 -14.703125 L 7.796875 -14.703125 C 9.640625 -14.703125 11.066406 -14.265625 12.078125 -13.390625 C 13.097656 -12.515625 13.609375 -11.28125 13.609375 -9.6875 C 13.609375 -8.019531 13.097656 -6.726562 12.078125 -5.8125 C 11.066406 -4.894531 9.640625 -4.4375 7.796875 -4.4375 L 4.40625 -4.4375 L 4.40625 0 L 1.9375 0 Z M 4.40625 -12.46875 L 4.40625 -6.65625 L 7.6875 -6.65625 C 10.050781 -6.65625 11.234375 -7.644531 11.234375 -9.625 C 11.234375 -11.519531 10.050781 -12.46875 7.6875 -12.46875 Z M 4.40625 -12.46875 "/></g></g></g><g fill="#004aad" fill-opacity="1"><g transform="translate(135.595451, 278.446153)"><g><path d="M 6.765625 -14.8125 C 8.671875 -14.8125 10.382812 -14.304688 11.90625 -13.296875 L 10.875 -11.109375 C 9.375 -12.015625 7.941406 -12.46875 6.578125 -12.46875 C 5.828125 -12.46875 5.238281 -12.332031 4.8125 -12.0625 C 4.382812 -11.800781 4.171875 -11.425781 4.171875 -10.9375 C 4.171875 -10.445312 4.367188 -10.03125 4.765625 -9.6875 C 5.160156 -9.34375 5.648438 -9.085938 6.234375 -8.921875 C 6.828125 -8.765625 7.460938 -8.5625 8.140625 -8.3125 C 8.828125 -8.070312 9.460938 -7.816406 10.046875 -7.546875 C 10.640625 -7.273438 11.128906 -6.847656 11.515625 -6.265625 C 11.898438 -5.679688 12.09375 -4.976562 12.09375 -4.15625 C 12.09375 -2.863281 11.578125 -1.832031 10.546875 -1.0625 C 9.523438 -0.300781 8.191406 0.078125 6.546875 0.078125 C 5.429688 0.078125 4.347656 -0.128906 3.296875 -0.546875 C 2.242188 -0.960938 1.328125 -1.53125 0.546875 -2.25 L 1.609375 -4.390625 C 2.359375 -3.703125 3.175781 -3.171875 4.0625 -2.796875 C 4.945312 -2.429688 5.789062 -2.25 6.59375 -2.25 C 7.457031 -2.25 8.128906 -2.40625 8.609375 -2.71875 C 9.097656 -3.03125 9.34375 -3.46875 9.34375 -4.03125 C 9.34375 -4.53125 9.144531 -4.953125 8.75 -5.296875 C 8.363281 -5.640625 7.875 -5.890625 7.28125 -6.046875 C 6.695312 -6.210938 6.0625 -6.410156 5.375 -6.640625 C 4.6875 -6.878906 4.046875 -7.125 3.453125 -7.375 C 2.867188 -7.632812 2.378906 -8.050781 1.984375 -8.625 C 1.597656 -9.195312 1.40625 -9.890625 1.40625 -10.703125 C 1.40625 -11.953125 1.894531 -12.945312 2.875 -13.6875 C 3.851562 -14.4375 5.148438 -14.8125 6.765625 -14.8125 Z M 6.765625 -14.8125 "/></g></g></g><g fill="#004aad" fill-opacity="1"><g transform="translate(148.657508, 278.446153)"><g><path d="M 7.953125 -4.890625 L 7.953125 0 L 5.5 0 L 5.5 -4.8125 L 0.015625 -14.703125 L 2.515625 -14.703125 L 6.71875 -7.53125 L 10.84375 -14.703125 L 13.359375 -14.703125 Z M 7.953125 -4.890625 "/></g></g></g><g fill="#004aad" fill-opacity="1"><g transform="translate(162.034563, 278.446153)"><g><path d="M 8.4375 -14.765625 C 9.476562 -14.765625 10.488281 -14.5625 11.46875 -14.15625 C 12.457031 -13.757812 13.3125 -13.207031 14.03125 -12.5 L 12.578125 -10.6875 C 12.046875 -11.257812 11.414062 -11.710938 10.6875 -12.046875 C 9.957031 -12.390625 9.222656 -12.5625 8.484375 -12.5625 C 7.015625 -12.5625 5.769531 -12.0625 4.75 -11.0625 C 3.738281 -10.0625 3.234375 -8.835938 3.234375 -7.390625 C 3.234375 -5.929688 3.738281 -4.703125 4.75 -3.703125 C 5.769531 -2.703125 7.015625 -2.203125 8.484375 -2.203125 C 10.003906 -2.203125 11.367188 -2.785156 12.578125 -3.953125 L 14.046875 -2.3125 C 13.296875 -1.570312 12.414062 -0.984375 11.40625 -0.546875 C 10.394531 -0.109375 9.378906 0.109375 8.359375 0.109375 C 6.203125 0.109375 4.390625 -0.609375 2.921875 -2.046875 C 1.453125 -3.484375 0.71875 -5.257812 0.71875 -7.375 C 0.71875 -9.457031 1.460938 -11.207031 2.953125 -12.625 C 4.441406 -14.050781 6.269531 -14.765625 8.4375 -14.765625 Z M 8.4375 -14.765625 "/></g></g></g><g fill="#004aad" fill-opacity="1"><g transform="translate(176.671624, 278.446153)"><g><path d="M 14.671875 0 L 12.203125 0 L 12.203125 -6.09375 L 4.40625 -6.09375 L 4.40625 0 L 1.9375 0 L 1.9375 -14.703125 L 4.40625 -14.703125 L 4.40625 -8.3125 L 12.203125 -8.3125 L 12.203125 -14.703125 L 14.671875 -14.703125 Z M 14.671875 0 "/></g></g></g><g fill="#004aad" fill-opacity="1"><g transform="translate(193.282688, 278.446153)"><g><path d="M 2.953125 -12.625 C 4.453125 -14.050781 6.300781 -14.765625 8.5 -14.765625 C 10.695312 -14.765625 12.546875 -14.050781 14.046875 -12.625 C 15.546875 -11.207031 16.296875 -9.445312 16.296875 -7.34375 C 16.296875 -5.25 15.546875 -3.484375 14.046875 -2.046875 C 12.546875 -0.609375 10.695312 0.109375 8.5 0.109375 C 6.300781 0.109375 4.453125 -0.609375 2.953125 -2.046875 C 1.460938 -3.484375 0.71875 -5.25 0.71875 -7.34375 C 0.71875 -9.445312 1.460938 -11.207031 2.953125 -12.625 Z M 8.53125 -12.53125 C 7.070312 -12.53125 5.820312 -12.03125 4.78125 -11.03125 C 3.75 -10.03125 3.234375 -8.800781 3.234375 -7.34375 C 3.234375 -5.894531 3.753906 -4.660156 4.796875 -3.640625 C 5.835938 -2.628906 7.078125 -2.125 8.515625 -2.125 C 9.960938 -2.125 11.195312 -2.628906 12.21875 -3.640625 C 13.238281 -4.660156 13.75 -5.894531 13.75 -7.34375 C 13.75 -8.800781 13.238281 -10.03125 12.21875 -11.03125 C 11.195312 -12.03125 9.96875 -12.53125 8.53125 -12.53125 Z M 8.53125 -12.53125 "/></g></g></g><g fill="#004aad" fill-opacity="1"><g transform="translate(210.292761, 278.446153)"><g><path d="M 4.40625 -2.25 L 10.765625 -2.25 L 10.765625 0 L 1.9375 0 L 1.9375 -14.703125 L 4.40625 -14.703125 Z M 4.40625 -2.25 "/></g></g></g><g fill="#004aad" fill-opacity="1"><g transform="translate(221.506803, 278.446153)"><g><path d="M 2.953125 -12.625 C 4.453125 -14.050781 6.300781 -14.765625 8.5 -14.765625 C 10.695312 -14.765625 12.546875 -14.050781 14.046875 -12.625 C 15.546875 -11.207031 16.296875 -9.445312 16.296875 -7.34375 C 16.296875 -5.25 15.546875 -3.484375 14.046875 -2.046875 C 12.546875 -0.609375 10.695312 0.109375 8.5 0.109375 C 6.300781 0.109375 4.453125 -0.609375 2.953125 -2.046875 C 1.460938 -3.484375 0.71875 -5.25 0.71875 -7.34375 C 0.71875 -9.445312 1.460938 -11.207031 2.953125 -12.625 Z M 8.53125 -12.53125 C 7.070312 -12.53125 5.820312 -12.03125 4.78125 -11.03125 C 3.75 -10.03125 3.234375 -8.800781 3.234375 -7.34375 C 3.234375 -5.894531 3.753906 -4.660156 4.796875 -3.640625 C 5.835938 -2.628906 7.078125 -2.125 8.515625 -2.125 C 9.960938 -2.125 11.195312 -2.628906 12.21875 -3.640625 C 13.238281 -4.660156 13.75 -5.894531 13.75 -7.34375 C 13.75 -8.800781 13.238281 -10.03125 12.21875 -11.03125 C 11.195312 -12.03125 9.96875 -12.53125 8.53125 -12.53125 Z M 8.53125 -12.53125 "/></g></g></g><g fill="#004aad" fill-opacity="1"><g transform="translate(238.516877, 278.446153)"><g><path d="M 11.984375 -7.21875 L 14.15625 -7.21875 L 14.15625 -1.8125 C 13.394531 -1.226562 12.5 -0.757812 11.46875 -0.40625 C 10.445312 -0.0625 9.4375 0.109375 8.4375 0.109375 C 6.269531 0.109375 4.441406 -0.609375 2.953125 -2.046875 C 1.460938 -3.484375 0.71875 -5.25 0.71875 -7.34375 C 0.71875 -9.445312 1.472656 -11.207031 2.984375 -12.625 C 4.492188 -14.050781 6.363281 -14.765625 8.59375 -14.765625 C 9.625 -14.765625 10.640625 -14.578125 11.640625 -14.203125 C 12.640625 -13.835938 13.503906 -13.335938 14.234375 -12.703125 L 12.828125 -10.875 C 11.628906 -12 10.21875 -12.5625 8.59375 -12.5625 C 7.09375 -12.5625 5.820312 -12.054688 4.78125 -11.046875 C 3.75 -10.035156 3.234375 -8.800781 3.234375 -7.34375 C 3.234375 -5.875 3.753906 -4.632812 4.796875 -3.625 C 5.835938 -2.625 7.109375 -2.125 8.609375 -2.125 C 9.742188 -2.125 10.867188 -2.457031 11.984375 -3.125 Z M 11.984375 -7.21875 "/></g></g></g><g fill="#004aad" fill-opacity="1"><g transform="translate(254.245945, 278.446153)"><g><path d="M 4.40625 0 L 1.9375 0 L 1.9375 -14.703125 L 4.40625 -14.703125 Z M 4.40625 0 "/></g></g></g><g fill="#004aad" fill-opacity="1"><g transform="translate(260.587985, 278.446153)"><g><path d="M 8.4375 -14.765625 C 9.476562 -14.765625 10.488281 -14.5625 11.46875 -14.15625 C 12.457031 -13.757812 13.3125 -13.207031 14.03125 -12.5 L 12.578125 -10.6875 C 12.046875 -11.257812 11.414062 -11.710938 10.6875 -12.046875 C 9.957031 -12.390625 9.222656 -12.5625 8.484375 -12.5625 C 7.015625 -12.5625 5.769531 -12.0625 4.75 -11.0625 C 3.738281 -10.0625 3.234375 -8.835938 3.234375 -7.390625 C 3.234375 -5.929688 3.738281 -4.703125 4.75 -3.703125 C 5.769531 -2.703125 7.015625 -2.203125 8.484375 -2.203125 C 10.003906 -2.203125 11.367188 -2.785156 12.578125 -3.953125 L 14.046875 -2.3125 C 13.296875 -1.570312 12.414062 -0.984375 11.40625 -0.546875 C 10.394531 -0.109375 9.378906 0.109375 8.359375 0.109375 C 6.203125 0.109375 4.390625 -0.609375 2.921875 -2.046875 C 1.453125 -3.484375 0.71875 -5.257812 0.71875 -7.375 C 0.71875 -9.457031 1.460938 -11.207031 2.953125 -12.625 C 4.441406 -14.050781 6.269531 -14.765625 8.4375 -14.765625 Z M 8.4375 -14.765625 "/></g></g></g><g fill="#004aad" fill-opacity="1"><g transform="translate(275.225023, 278.446153)"><g><path d="M 13.078125 -12.921875 L 4.140625 -2.21875 L 13.1875 -2.21875 L 13.1875 0 L 0.78125 0 L 0.78125 -1.78125 L 9.75 -12.46875 L 1.046875 -12.46875 L 1.046875 -14.703125 L 13.078125 -14.703125 Z M 13.078125 -12.921875 "/></g></g></g><g fill="#004aad" fill-opacity="1"><g transform="translate(289.211075, 278.446153)"><g><path d="M 14.671875 0 L 12.25 0 L 4.40625 -10.546875 L 4.40625 0 L 1.9375 0 L 1.9375 -14.703125 L 4.375 -14.703125 L 12.25 -4.140625 L 12.25 -14.703125 L 14.671875 -14.703125 Z M 14.671875 0 "/></g></g></g><g fill="#004aad" fill-opacity="1"><g transform="translate(305.843139, 278.446153)"><g><path d="M 12.4375 -12.46875 L 4.40625 -12.46875 L 4.40625 -8.5 L 11.59375 -8.5 L 11.59375 -6.28125 L 4.40625 -6.28125 L 4.40625 -2.21875 L 12.6875 -2.21875 L 12.6875 0 L 1.9375 0 L 1.9375 -14.703125 L 12.4375 -14.703125 Z M 12.4375 -12.46875 "/></g></g></g><g clip-path="url(#10d4bf7e5c)"><path fill="#38b6ff" d="M 222.953125 101.613281 C 223.574219 101.519531 224.199219 101.371094 224.726562 101.199219 C 226.46875 100.621094 227.882812 99.578125 228.585938 97.832031 C 229.597656 95.324219 229.894531 92.921875 230.882812 91.03125 C 228.277344 91.347656 225.761719 92.261719 224.238281 94.328125 C 222.710938 96.398438 222.566406 99.113281 222.953125 101.613281 M 214.199219 121.839844 C 210.15625 121.835938 205.554688 122.703125 202.984375 125.953125 C 201.304688 128.082031 200.867188 130.773438 201.054688 133.453125 C 202.132812 132.550781 203.445312 131.96875 204.734375 131.441406 C 206.609375 130.671875 208.421875 129.976562 210.226562 129.035156 C 212.320312 127.9375 213.585938 126.21875 214.03125 123.910156 C 214.144531 123.304688 214.210938 122.558594 214.199219 121.839844 Z M 256.90625 152.535156 C 254.824219 153.292969 252.457031 154.664062 251.113281 156.179688 C 249.863281 157.589844 249.359375 159.15625 249.792969 161.03125 C 250.394531 163.601562 251.574219 165.789062 252.820312 168.082031 C 253.824219 169.933594 254.964844 172.015625 255.039062 174.175781 C 258.699219 171.871094 262.023438 168.636719 262.484375 164.394531 C 262.984375 159.847656 260.03125 155.625 256.90625 152.535156 Z M 223.910156 155.832031 C 223.042969 153.476562 221.617188 151.246094 219.335938 150.09375 C 217.167969 148.996094 214.726562 149.113281 212.402344 149.789062 C 213.082031 150.304688 213.6875 150.929688 214.273438 151.558594 C 215.292969 152.648438 216.257812 153.707031 217.386719 154.691406 C 218.855469 155.96875 220.636719 156.34375 222.53125 156.105469 C 222.945312 156.054688 223.425781 155.960938 223.910156 155.832031 Z M 222.636719 174.203125 C 218.527344 176.269531 214.167969 179.53125 213.273438 184.207031 C 212.570312 187.890625 214.199219 191.46875 216.488281 194.484375 C 216.976562 192.722656 218.117188 191.226562 219.253906 189.828125 C 220.695312 188.050781 222.109375 186.382812 223.367188 184.460938 C 224.925781 182.074219 225.066406 179.511719 224.0625 176.886719 C 223.738281 176.046875 223.222656 175.054688 222.636719 174.203125 Z M 206.707031 74.769531 C 203.597656 75.773438 200.238281 77.566406 199.078125 80.679688 C 198.316406 82.738281 198.675781 84.941406 199.519531 86.980469 C 200.144531 86.089844 200.96875 85.351562 201.804688 84.644531 C 203.105469 83.542969 204.382812 82.511719 205.578125 81.28125 C 206.949219 79.867188 207.429688 78.179688 207.109375 76.253906 C 207.03125 75.804688 206.890625 75.277344 206.707031 74.769531 Z M 210.328125 105.414062 C 210.105469 107.273438 210.28125 109.246094 211.398438 110.757812 C 212.5 112.246094 214.261719 112.976562 216.136719 113.289062 C 215.324219 111.628906 215.164062 109.890625 214.464844 108.15625 C 214.171875 107.433594 213.785156 106.78125 213.128906 106.339844 C 212.441406 105.882812 211.363281 105.609375 210.328125 105.414062 Z M 219.894531 104.257812 C 219.84375 104.144531 219.800781 104.023438 219.773438 103.898438 C 218.839844 99.96875 218.875 95.589844 221.371094 92.214844 C 224.785156 87.582031 231.136719 86.945312 236.429688 87.496094 C 236.816406 87.535156 237.160156 87.699219 237.429688 87.941406 C 237.699219 88.179688 237.902344 88.503906 237.984375 88.882812 C 237.992188 88.914062 238 88.949219 238.007812 88.980469 C 238.015625 89.042969 238.019531 89.105469 238.027344 89.167969 C 238.03125 89.226562 238.03125 89.292969 238.027344 89.355469 C 238.027344 89.386719 238.019531 89.421875 238.019531 89.457031 C 237.976562 89.839844 237.820312 90.1875 237.578125 90.453125 C 237.335938 90.722656 237.011719 90.925781 236.636719 91.007812 C 235.796875 91.195312 234.855469 91.488281 234.3125 92.203125 C 233.835938 92.832031 233.558594 93.863281 233.347656 94.617188 C 232.90625 96.175781 232.5 97.660156 231.890625 99.164062 C 230.789062 101.894531 228.59375 103.671875 225.847656 104.578125 C 225.261719 104.773438 224.613281 104.941406 223.949219 105.058594 C 226.105469 110.195312 230.476562 112.550781 236.296875 112.890625 C 238.757812 113.035156 241.289062 112.800781 243.707031 112.332031 C 244.433594 112.191406 245.214844 112.027344 245.960938 111.828125 C 247.035156 105.898438 247.054688 99.316406 244.179688 93.902344 C 241.953125 89.722656 238.304688 86.859375 233.816406 85.4375 C 231.039062 84.554688 228.035156 84.257812 225.09375 84.515625 C 225.0625 84.519531 225.027344 84.523438 225 84.523438 C 223.484375 84.660156 221.992188 84.949219 220.558594 85.378906 C 216.808594 86.496094 213.09375 88.726562 211.089844 92.1875 C 209.328125 95.21875 209.261719 98.542969 210.242188 101.789062 C 213.640625 102.390625 216.269531 103.097656 217.773438 106.824219 C 218.085938 107.605469 218.308594 108.421875 218.527344 109.234375 C 219.019531 111.082031 219.351562 112.917969 221.476562 113.390625 C 221.859375 113.476562 222.179688 113.675781 222.421875 113.945312 C 222.664062 114.214844 222.824219 114.5625 222.863281 114.945312 C 222.867188 114.980469 222.871094 115.011719 222.871094 115.046875 C 222.875 115.105469 222.875 115.167969 222.871094 115.230469 C 222.863281 115.296875 222.859375 115.355469 222.847656 115.417969 C 222.84375 115.449219 222.835938 115.484375 222.828125 115.515625 C 222.742188 115.894531 222.546875 116.214844 222.277344 116.457031 C 222.003906 116.699219 221.660156 116.859375 221.273438 116.898438 C 216.777344 117.367188 211.433594 116.804688 208.535156 112.875 C 206.523438 110.152344 206.375 106.675781 207.042969 103.472656 C 206.867188 102.953125 206.710938 102.429688 206.578125 101.910156 C 205.265625 103.078125 203.640625 103.820312 201.792969 104.113281 C 200.828125 104.265625 199.910156 103.601562 199.757812 102.632812 C 199.601562 101.664062 200.265625 100.75 201.238281 100.59375 C 202.957031 100.324219 204.320312 99.484375 205.246094 98.007812 C 205.636719 97.386719 206.042969 96.464844 206.152344 95.722656 C 206.164062 95.617188 206.191406 95.511719 206.226562 95.410156 C 206.492188 93.691406 207.074219 92.011719 208.003906 90.398438 C 210.480469 86.132812 214.894531 83.347656 219.535156 81.960938 C 220.5 81.675781 221.484375 81.441406 222.484375 81.269531 C 221.507812 79.175781 219.839844 77.296875 218.015625 76.03125 C 215.652344 74.390625 212.96875 73.65625 210.199219 73.980469 C 210.390625 74.554688 210.53125 75.136719 210.621094 75.671875 C 211.128906 78.710938 210.292969 81.539062 208.132812 83.765625 C 206.851562 85.082031 205.5 86.179688 204.105469 87.367188 C 203.46875 87.902344 202.53125 88.6875 202.183594 89.464844 C 201.863281 90.167969 201.996094 90.988281 202.191406 91.707031 C 202.285156 92.066406 202.265625 92.433594 202.148438 92.757812 C 202.035156 93.085938 201.824219 93.386719 201.523438 93.609375 C 201.433594 93.671875 201.339844 93.730469 201.238281 93.777344 C 201.140625 93.824219 201.039062 93.859375 200.933594 93.886719 C 200.570312 93.988281 200.207031 93.964844 199.878906 93.847656 C 199.550781 93.734375 199.253906 93.523438 199.03125 93.222656 C 196.179688 89.324219 193.945312 84.261719 195.738281 79.4375 C 197.53125 74.625 202.546875 72.125 207.222656 70.914062 C 207.363281 70.878906 207.507812 70.855469 207.644531 70.855469 C 211.984375 69.6875 216.359375 70.542969 220.046875 73.105469 C 222.71875 74.960938 225.039062 77.765625 226.179688 80.878906 C 229.132812 80.773438 232.105469 81.152344 234.894531 82.039062 C 240.269531 83.746094 244.664062 87.222656 247.324219 92.226562 C 250.546875 98.292969 250.679688 105.464844 249.53125 112.113281 C 256.152344 115.0625 259.746094 121.292969 259.46875 128.660156 C 259.347656 131.824219 258.484375 135.113281 256.851562 137.839844 C 255.941406 139.359375 254.753906 140.757812 253.300781 141.769531 C 255.855469 143.90625 257.902344 146.496094 258.925781 149.53125 C 263.070312 153.476562 266.679688 158.804688 266.027344 164.78125 C 265.222656 172.136719 258.398438 176.917969 252.191406 179.714844 C 251.839844 179.871094 251.464844 179.914062 251.117188 179.839844 C 250.769531 179.773438 250.433594 179.601562 250.171875 179.328125 C 250.128906 179.285156 250.085938 179.238281 250.054688 179.191406 C 250.03125 179.160156 250.007812 179.125 249.980469 179.089844 C 249.957031 179.054688 249.9375 179.023438 249.914062 178.988281 C 249.882812 178.9375 249.855469 178.882812 249.832031 178.828125 C 249.675781 178.480469 249.640625 178.105469 249.707031 177.757812 C 249.777344 177.410156 249.945312 177.074219 250.222656 176.808594 C 250.855469 176.199219 251.417969 175.472656 251.472656 174.5625 C 251.5625 173.113281 250.355469 171.019531 249.683594 169.78125 C 248.273438 167.179688 247.003906 164.757812 246.324219 161.839844 C 245.710938 159.210938 246.261719 156.675781 247.875 154.519531 C 249.492188 152.347656 252.316406 150.527344 255.035156 149.433594 C 253.953125 147.234375 252.125 145.34375 250.230469 143.882812 C 247.0625 141.433594 243.1875 139.734375 239.339844 138.703125 C 238.476562 138.472656 237.617188 138.273438 236.746094 138.105469 C 236.71875 138.097656 236.695312 138.09375 236.664062 138.089844 C 233.722656 137.519531 230.734375 137.292969 227.753906 137.398438 C 231.320312 139.382812 233.773438 142.539062 234.859375 146.703125 C 235.109375 147.652344 234.535156 148.628906 233.585938 148.875 C 232.636719 149.121094 231.660156 148.550781 231.414062 147.601562 C 230.402344 143.738281 227.957031 141.101562 224.25 139.695312 C 222.75 139.125 220.617188 138.65625 218.945312 138.660156 C 215.75 139.472656 212.648438 140.671875 209.722656 142.222656 C 201.539062 146.566406 197.777344 153.496094 198.394531 162.660156 C 198.601562 165.789062 199.3125 168.929688 200.335938 171.890625 C 200.511719 172.402344 200.703125 172.929688 200.910156 173.460938 C 202.363281 172.152344 203.96875 171.019531 205.644531 170.011719 C 209.6875 167.585938 213.988281 166.007812 218.285156 164.140625 C 220.011719 163.390625 224.070312 161.664062 224.714844 159.710938 C 224.761719 159.570312 224.789062 159.429688 224.804688 159.285156 C 224.175781 159.453125 223.539062 159.574219 222.964844 159.644531 C 220.0625 160.003906 217.28125 159.328125 215.046875 157.375 C 213.820312 156.3125 212.777344 155.175781 211.667969 153.996094 C 211.121094 153.402344 210.398438 152.621094 209.667969 152.257812 C 208.863281 151.859375 207.929688 151.957031 207.082031 152.132812 C 206.703125 152.210938 206.332031 152.164062 206 152.015625 C 205.667969 151.871094 205.382812 151.625 205.183594 151.292969 C 205.164062 151.257812 205.144531 151.21875 205.125 151.183594 C 205.101562 151.132812 205.078125 151.082031 205.054688 151.03125 C 205.035156 150.980469 205.019531 150.929688 205.003906 150.871094 C 204.992188 150.835938 204.984375 150.789062 204.972656 150.75 C 204.894531 150.371094 204.941406 150 205.089844 149.667969 C 205.234375 149.339844 205.480469 149.050781 205.808594 148.855469 C 210.296875 146.203125 215.984375 144.410156 220.941406 146.917969 C 224.640625 148.785156 226.742188 152.472656 227.800781 156.34375 C 228.394531 157.785156 228.597656 159.316406 228.097656 160.824219 C 226.988281 164.191406 222.710938 166.101562 219.707031 167.40625 C 215.574219 169.207031 211.359375 170.734375 207.476562 173.070312 C 203.5625 175.417969 200.253906 178.429688 198.609375 182.796875 C 196.542969 188.28125 196.40625 194.042969 199.695312 199.082031 C 204.503906 206.445312 214.566406 209.40625 222.949219 208.589844 C 233.382812 207.582031 241.410156 201.273438 244.410156 191.144531 C 245.976562 185.867188 245.671875 180.554688 241.308594 176.75 C 240.15625 175.75 238.835938 174.949219 237.445312 174.332031 C 235.101562 173.289062 232.445312 172.714844 229.882812 172.625 C 228.703125 172.585938 227.324219 172.648438 226.039062 172.910156 C 226.566406 173.773438 227.027344 174.6875 227.351562 175.519531 C 228.804688 179.234375 228.558594 183.035156 226.347656 186.414062 C 225.019531 188.445312 223.542969 190.199219 222.019531 192.074219 C 221.246094 193.027344 220.191406 194.324219 219.894531 195.53125 C 219.601562 196.742188 220.050781 197.96875 220.59375 199.039062 C 220.757812 199.382812 220.8125 199.746094 220.761719 200.089844 C 220.714844 200.441406 220.5625 200.777344 220.308594 201.050781 C 220.234375 201.132812 220.15625 201.203125 220.070312 201.265625 C 219.992188 201.328125 219.894531 201.382812 219.800781 201.433594 C 219.464844 201.605469 219.097656 201.652344 218.753906 201.605469 C 218.402344 201.554688 218.0625 201.40625 217.789062 201.152344 C 215.09375 198.65625 212.558594 195.683594 211.023438 192.324219 C 209.75 189.550781 209.191406 186.558594 209.773438 183.535156 C 211.003906 177.125 216.796875 172.914062 222.386719 170.375 C 224.648438 169.277344 227.519531 168.976562 230.003906 169.0625 C 233.023438 169.164062 236.125 169.847656 238.890625 171.074219 C 247.71875 174.992188 250.546875 182.984375 247.828125 192.152344 C 244.414062 203.679688 235.175781 210.984375 223.300781 212.136719 C 213.566406 213.078125 202.265625 209.53125 196.714844 201.027344 C 192.796875 195.023438 192.804688 188.101562 195.277344 181.539062 C 196 179.617188 197 177.875 198.238281 176.300781 C 197.761719 175.242188 197.339844 174.113281 196.972656 173.054688 C 195.84375 169.792969 195.070312 166.34375 194.839844 162.898438 C 194.128906 152.335938 198.628906 144.078125 208.058594 139.078125 C 211.21875 137.398438 214.574219 136.105469 218.03125 135.21875 C 218.15625 135.171875 218.296875 135.136719 218.433594 135.117188 C 223.554688 133.859375 228.875 133.496094 234.117188 134.097656 C 233.140625 132.207031 231.894531 130.324219 230.722656 128.882812 C 227.351562 124.738281 223.027344 122.019531 217.765625 121.839844 C 217.777344 122.746094 217.699219 123.667969 217.558594 124.453125 C 216.9375 127.886719 214.980469 130.570312 211.875 132.195312 C 209.972656 133.191406 208.066406 133.929688 206.089844 134.738281 C 205.109375 135.140625 203.773438 135.683594 203.042969 136.472656 C 202.378906 137.1875 202.175781 138.164062 202.097656 139.109375 C 202.066406 139.476562 201.921875 139.8125 201.707031 140.082031 C 201.488281 140.347656 201.191406 140.558594 200.835938 140.664062 C 200.726562 140.695312 200.617188 140.71875 200.507812 140.730469 C 200.398438 140.742188 200.285156 140.742188 200.171875 140.734375 C 199.800781 140.703125 199.46875 140.5625 199.199219 140.34375 C 198.929688 140.128906 198.722656 139.832031 198.617188 139.476562 C 197.046875 134.289062 196.636719 128.246094 200.191406 123.75 C 203.855469 119.105469 210.203125 118.050781 215.78125 118.316406 C 222.984375 117.816406 229.03125 121.152344 233.488281 126.636719 C 235.316406 128.878906 237.21875 131.960938 238.367188 134.800781 C 239 134.941406 239.632812 135.09375 240.261719 135.257812 C 243.445312 136.113281 246.957031 137.519531 250.105469 139.476562 C 251.695312 138.863281 252.949219 137.429688 253.796875 136.015625 C 255.117188 133.800781 255.8125 131.09375 255.914062 128.527344 C 256.144531 122.390625 253.171875 117.359375 247.457031 115.113281 C 246.453125 115.40625 245.386719 115.640625 244.382812 115.835938 C 241.671875 116.355469 238.851562 116.609375 236.09375 116.449219 C 228.113281 115.984375 222.160156 112.109375 219.894531 104.257812 Z M 219.894531 104.257812 " fill-opacity="1" fill-rule="nonzero"/></g><g clip-path="url(#1c4987fc25)"><path fill="#38b6ff" d="M 152.007812 101.613281 C 151.382812 101.519531 150.761719 101.371094 150.230469 101.199219 C 148.488281 100.621094 147.074219 99.578125 146.371094 97.832031 C 145.359375 95.324219 145.0625 92.921875 144.074219 91.03125 C 146.683594 91.347656 149.195312 92.261719 150.71875 94.328125 C 152.246094 96.398438 152.390625 99.113281 152.007812 101.613281 M 160.757812 121.839844 C 164.796875 121.835938 169.40625 122.703125 171.972656 125.953125 C 173.65625 128.082031 174.089844 130.773438 173.902344 133.453125 C 172.828125 132.550781 171.515625 131.96875 170.222656 131.441406 C 168.351562 130.671875 166.535156 129.976562 164.734375 129.035156 C 162.640625 127.9375 161.367188 126.21875 160.925781 123.910156 C 160.8125 123.304688 160.746094 122.558594 160.757812 121.839844 Z M 118.054688 152.535156 C 120.136719 153.292969 122.503906 154.664062 123.847656 156.179688 C 125.097656 157.589844 125.601562 159.15625 125.164062 161.03125 C 124.566406 163.601562 123.386719 165.789062 122.140625 168.082031 C 121.136719 169.933594 119.996094 172.015625 119.921875 174.175781 C 116.265625 171.871094 112.9375 168.636719 112.472656 164.394531 C 111.976562 159.847656 114.929688 155.625 118.054688 152.535156 Z M 151.050781 155.832031 C 151.914062 153.476562 153.339844 151.246094 155.621094 150.09375 C 157.785156 148.996094 160.230469 149.113281 162.554688 149.789062 C 161.875 150.304688 161.273438 150.929688 160.683594 151.558594 C 159.664062 152.648438 158.699219 153.707031 157.570312 154.691406 C 156.105469 155.96875 154.320312 156.34375 152.429688 156.105469 C 152.015625 156.054688 151.53125 155.960938 151.050781 155.832031 Z M 152.324219 174.203125 C 156.433594 176.269531 160.789062 179.53125 161.6875 184.207031 C 162.394531 187.890625 160.757812 191.46875 158.46875 194.484375 C 157.984375 192.722656 156.839844 191.226562 155.707031 189.828125 C 154.265625 188.050781 152.851562 186.382812 151.59375 184.460938 C 150.03125 182.074219 149.890625 179.511719 150.902344 176.886719 C 151.21875 176.046875 151.738281 175.054688 152.324219 174.203125 Z M 168.25 74.769531 C 171.359375 75.773438 174.71875 77.566406 175.878906 80.679688 C 176.640625 82.738281 176.28125 84.941406 175.441406 86.980469 C 174.8125 86.089844 173.988281 85.351562 173.15625 84.644531 C 171.855469 83.542969 170.578125 82.511719 169.378906 81.28125 C 168.011719 79.867188 167.527344 78.179688 167.851562 76.253906 C 167.929688 75.804688 168.070312 75.277344 168.25 74.769531 Z M 164.628906 105.414062 C 164.851562 107.273438 164.679688 109.246094 163.558594 110.757812 C 162.460938 112.246094 160.699219 112.976562 158.816406 113.289062 C 159.636719 111.628906 159.796875 109.890625 160.492188 108.15625 C 160.785156 107.433594 161.175781 106.78125 161.832031 106.339844 C 162.511719 105.882812 163.597656 105.609375 164.628906 105.414062 Z M 155.0625 104.257812 C 155.117188 104.144531 155.15625 104.023438 155.1875 103.898438 C 156.117188 99.96875 156.078125 95.589844 153.585938 92.214844 C 150.171875 87.582031 143.820312 86.945312 138.527344 87.496094 C 138.140625 87.535156 137.796875 87.699219 137.527344 87.941406 C 137.257812 88.179688 137.058594 88.503906 136.972656 88.882812 C 136.964844 88.914062 136.957031 88.949219 136.953125 88.980469 C 136.941406 89.042969 136.933594 89.105469 136.933594 89.167969 C 136.929688 89.226562 136.929688 89.292969 136.929688 89.355469 C 136.933594 89.386719 136.933594 89.421875 136.941406 89.457031 C 136.980469 89.839844 137.140625 90.1875 137.382812 90.453125 C 137.621094 90.722656 137.949219 90.925781 138.324219 91.007812 C 139.164062 91.195312 140.101562 91.488281 140.644531 92.203125 C 141.125 92.832031 141.402344 93.863281 141.613281 94.617188 C 142.054688 96.175781 142.457031 97.660156 143.070312 99.164062 C 144.167969 101.894531 146.367188 103.671875 149.109375 104.578125 C 149.699219 104.773438 150.347656 104.941406 151.011719 105.058594 C 148.855469 110.195312 144.480469 112.550781 138.664062 112.890625 C 136.203125 113.035156 133.671875 112.800781 131.253906 112.332031 C 130.523438 112.191406 129.746094 112.027344 128.996094 111.828125 C 127.925781 105.898438 127.902344 99.316406 130.78125 93.902344 C 133.003906 89.722656 136.652344 86.859375 141.140625 85.4375 C 143.917969 84.554688 146.925781 84.257812 149.867188 84.515625 C 149.898438 84.519531 149.929688 84.523438 149.957031 84.523438 C 151.472656 84.660156 152.96875 84.949219 154.402344 85.378906 C 158.152344 86.496094 161.863281 88.726562 163.871094 92.1875 C 165.628906 95.21875 165.695312 98.542969 164.714844 101.789062 C 161.320312 102.390625 158.691406 103.097656 157.1875 106.824219 C 156.871094 107.605469 156.652344 108.421875 156.433594 109.234375 C 155.941406 111.082031 155.609375 112.917969 153.480469 113.390625 C 153.101562 113.476562 152.777344 113.675781 152.539062 113.945312 C 152.296875 114.214844 152.136719 114.5625 152.09375 114.945312 C 152.09375 114.980469 152.089844 115.011719 152.085938 115.046875 C 152.085938 115.105469 152.085938 115.167969 152.089844 115.230469 C 152.09375 115.296875 152.101562 115.355469 152.109375 115.417969 C 152.117188 115.449219 152.121094 115.484375 152.128906 115.515625 C 152.214844 115.894531 152.414062 116.214844 152.683594 116.457031 C 152.953125 116.699219 153.300781 116.859375 153.683594 116.898438 C 158.183594 117.367188 163.527344 116.804688 166.425781 112.875 C 168.4375 110.152344 168.582031 106.675781 167.917969 103.472656 C 168.09375 102.953125 168.246094 102.429688 168.378906 101.910156 C 169.691406 103.078125 171.316406 103.820312 173.164062 104.113281 C 174.132812 104.265625 175.046875 103.601562 175.203125 102.632812 C 175.355469 101.664062 174.691406 100.75 173.722656 100.59375 C 172 100.324219 170.636719 99.484375 169.710938 98.007812 C 169.320312 97.386719 168.917969 96.464844 168.808594 95.722656 C 168.792969 95.617188 168.769531 95.511719 168.734375 95.410156 C 168.464844 93.691406 167.886719 92.011719 166.953125 90.398438 C 164.476562 86.132812 160.0625 83.347656 155.421875 81.960938 C 154.457031 81.675781 153.472656 81.441406 152.472656 81.269531 C 153.449219 79.175781 155.121094 77.296875 156.945312 76.03125 C 159.304688 74.390625 161.992188 73.65625 164.753906 73.980469 C 164.570312 74.554688 164.425781 75.136719 164.339844 75.671875 C 163.828125 78.710938 164.664062 81.539062 166.824219 83.765625 C 168.109375 85.082031 169.457031 86.179688 170.851562 87.367188 C 171.488281 87.902344 172.425781 88.6875 172.777344 89.464844 C 173.097656 90.167969 172.960938 90.988281 172.769531 91.707031 C 172.671875 92.066406 172.695312 92.433594 172.808594 92.757812 C 172.925781 93.085938 173.136719 93.386719 173.4375 93.609375 C 173.527344 93.671875 173.621094 93.730469 173.71875 93.777344 C 173.816406 93.824219 173.917969 93.859375 174.027344 93.886719 C 174.386719 93.988281 174.753906 93.964844 175.078125 93.847656 C 175.410156 93.734375 175.707031 93.523438 175.925781 93.222656 C 178.78125 89.324219 181.011719 84.261719 179.214844 79.4375 C 177.425781 74.625 172.410156 72.125 167.738281 70.914062 C 167.59375 70.878906 167.453125 70.855469 167.3125 70.855469 C 162.972656 69.6875 158.597656 70.542969 154.910156 73.105469 C 152.238281 74.960938 149.921875 77.765625 148.78125 80.878906 C 145.824219 80.773438 142.851562 81.152344 140.0625 82.039062 C 134.6875 83.746094 130.296875 87.222656 127.636719 92.226562 C 124.410156 98.292969 124.277344 105.464844 125.429688 112.113281 C 118.804688 115.0625 115.210938 121.292969 115.488281 128.660156 C 115.609375 131.824219 116.476562 135.113281 118.109375 137.839844 C 119.015625 139.359375 120.207031 140.757812 121.65625 141.769531 C 119.105469 143.90625 117.054688 146.496094 116.03125 149.53125 C 111.890625 153.476562 108.28125 158.804688 108.929688 164.78125 C 109.734375 172.136719 116.558594 176.917969 122.769531 179.714844 C 123.117188 179.871094 123.488281 179.914062 123.839844 179.839844 C 124.191406 179.773438 124.523438 179.601562 124.789062 179.328125 C 124.828125 179.285156 124.867188 179.238281 124.902344 179.191406 C 124.929688 179.160156 124.953125 179.125 124.980469 179.089844 C 125 179.054688 125.023438 179.023438 125.042969 178.988281 C 125.074219 178.9375 125.101562 178.882812 125.125 178.828125 C 125.28125 178.480469 125.316406 178.105469 125.25 177.757812 C 125.183594 177.410156 125.011719 177.074219 124.734375 176.808594 C 124.101562 176.199219 123.542969 175.472656 123.484375 174.5625 C 123.394531 173.113281 124.601562 171.019531 125.273438 169.78125 C 126.683594 167.179688 127.957031 164.757812 128.636719 161.839844 C 129.246094 159.210938 128.695312 156.675781 127.089844 154.519531 C 125.464844 152.347656 122.640625 150.527344 119.921875 149.433594 C 121.003906 147.234375 122.832031 145.34375 124.730469 143.882812 C 127.894531 141.433594 131.769531 139.734375 135.621094 138.703125 C 136.480469 138.472656 137.339844 138.273438 138.210938 138.105469 C 138.238281 138.097656 138.265625 138.09375 138.292969 138.089844 C 141.234375 137.519531 144.226562 137.292969 147.207031 137.398438 C 143.636719 139.382812 141.183594 142.539062 140.097656 146.703125 C 139.847656 147.652344 140.421875 148.628906 141.371094 148.875 C 142.320312 149.121094 143.296875 148.550781 143.546875 147.601562 C 144.554688 143.738281 147 141.101562 150.707031 139.695312 C 152.210938 139.125 154.335938 138.65625 156.015625 138.660156 C 159.210938 139.472656 162.308594 140.671875 165.234375 142.222656 C 173.421875 146.566406 177.183594 153.496094 176.566406 162.660156 C 176.355469 165.789062 175.644531 168.929688 174.621094 171.890625 C 174.445312 172.402344 174.253906 172.929688 174.046875 173.460938 C 172.59375 172.152344 170.992188 171.019531 169.316406 170.011719 C 165.269531 167.585938 160.96875 166.007812 156.671875 164.140625 C 154.949219 163.390625 150.886719 161.664062 150.242188 159.710938 C 150.199219 159.570312 150.167969 159.429688 150.152344 159.285156 C 150.785156 159.453125 151.417969 159.574219 151.992188 159.644531 C 154.894531 160.003906 157.675781 159.328125 159.914062 157.375 C 161.136719 156.3125 162.183594 155.175781 163.289062 153.996094 C 163.839844 153.402344 164.558594 152.621094 165.292969 152.257812 C 166.09375 151.859375 167.027344 151.957031 167.878906 152.132812 C 168.253906 152.210938 168.628906 152.164062 168.960938 152.015625 C 169.289062 151.871094 169.578125 151.625 169.769531 151.292969 C 169.792969 151.257812 169.816406 151.21875 169.832031 151.183594 C 169.859375 151.132812 169.878906 151.082031 169.898438 151.03125 C 169.921875 150.980469 169.9375 150.929688 169.953125 150.871094 C 169.964844 150.835938 169.976562 150.789062 169.984375 150.75 C 170.058594 150.371094 170.011719 150 169.867188 149.667969 C 169.722656 149.339844 169.476562 149.050781 169.144531 148.855469 C 164.660156 146.203125 158.972656 144.410156 154.015625 146.917969 C 150.316406 148.785156 148.21875 152.472656 147.152344 156.34375 C 146.558594 157.785156 146.359375 159.316406 146.855469 160.824219 C 147.964844 164.191406 152.246094 166.101562 155.246094 167.40625 C 159.382812 169.207031 163.59375 170.734375 167.480469 173.070312 C 171.394531 175.417969 174.703125 178.429688 176.347656 182.796875 C 178.410156 188.28125 178.550781 194.042969 175.257812 199.082031 C 170.453125 206.445312 160.386719 209.40625 152.003906 208.589844 C 141.566406 207.582031 133.546875 201.273438 130.542969 191.144531 C 128.980469 185.867188 129.285156 180.554688 133.648438 176.75 C 134.796875 175.75 136.117188 174.949219 137.511719 174.332031 C 139.859375 173.289062 142.507812 172.714844 145.074219 172.625 C 146.253906 172.585938 147.628906 172.648438 148.917969 172.910156 C 148.386719 173.773438 147.933594 174.6875 147.605469 175.519531 C 146.148438 179.234375 146.398438 183.035156 148.609375 186.414062 C 149.9375 188.445312 151.414062 190.199219 152.9375 192.074219 C 153.707031 193.027344 154.761719 194.324219 155.058594 195.53125 C 155.355469 196.742188 154.90625 197.96875 154.363281 199.039062 C 154.195312 199.382812 154.144531 199.746094 154.191406 200.089844 C 154.242188 200.441406 154.394531 200.777344 154.648438 201.050781 C 154.722656 201.132812 154.800781 201.203125 154.882812 201.265625 C 154.96875 201.328125 155.058594 201.382812 155.15625 201.433594 C 155.492188 201.605469 155.855469 201.652344 156.207031 201.605469 C 156.550781 201.554688 156.886719 201.40625 157.167969 201.152344 C 159.863281 198.65625 162.394531 195.683594 163.933594 192.324219 C 165.207031 189.550781 165.765625 186.558594 165.183594 183.535156 C 163.953125 177.125 158.160156 172.914062 152.570312 170.375 C 150.308594 169.277344 147.4375 168.976562 144.953125 169.0625 C 141.929688 169.164062 138.832031 169.847656 136.0625 171.074219 C 127.234375 174.992188 124.410156 182.984375 127.128906 192.152344 C 130.542969 203.679688 139.777344 210.984375 151.660156 212.136719 C 161.390625 213.078125 172.691406 209.53125 178.242188 201.027344 C 182.164062 195.023438 182.152344 188.101562 179.679688 181.539062 C 178.957031 179.617188 177.957031 177.875 176.71875 176.300781 C 177.195312 175.242188 177.617188 174.113281 177.984375 173.054688 C 179.113281 169.792969 179.882812 166.34375 180.117188 162.898438 C 180.828125 152.335938 176.332031 144.078125 166.898438 139.078125 C 163.734375 137.398438 160.378906 136.105469 156.925781 135.21875 C 156.796875 135.171875 156.660156 135.136719 156.519531 135.117188 C 151.40625 133.859375 146.082031 133.496094 140.839844 134.097656 C 141.816406 132.207031 143.0625 130.324219 144.234375 128.882812 C 147.605469 124.738281 151.929688 122.019531 157.191406 121.839844 C 157.183594 122.746094 157.257812 123.667969 157.402344 124.453125 C 158.023438 127.886719 159.976562 130.570312 163.082031 132.195312 C 164.984375 133.191406 166.890625 133.929688 168.867188 134.738281 C 169.847656 135.140625 171.183594 135.683594 171.914062 136.472656 C 172.578125 137.1875 172.78125 138.164062 172.863281 139.109375 C 172.890625 139.476562 173.03125 139.8125 173.253906 140.082031 C 173.46875 140.347656 173.765625 140.558594 174.121094 140.664062 C 174.230469 140.695312 174.339844 140.71875 174.449219 140.730469 C 174.558594 140.742188 174.671875 140.742188 174.785156 140.734375 C 175.152344 140.703125 175.488281 140.5625 175.757812 140.34375 C 176.027344 140.128906 176.234375 139.832031 176.34375 139.476562 C 177.910156 134.289062 178.320312 128.246094 174.769531 123.75 C 171.101562 119.105469 164.753906 118.050781 159.175781 118.316406 C 151.976562 117.816406 145.929688 121.152344 141.46875 126.636719 C 139.644531 128.878906 137.738281 131.960938 136.589844 134.800781 C 135.957031 134.941406 135.324219 135.09375 134.695312 135.257812 C 131.511719 136.113281 128 137.519531 124.851562 139.476562 C 123.265625 138.863281 122.007812 137.429688 121.164062 136.015625 C 119.839844 133.800781 119.144531 131.09375 119.046875 128.527344 C 118.816406 122.390625 121.789062 117.359375 127.5 115.113281 C 128.503906 115.40625 129.570312 115.640625 130.574219 115.835938 C 133.285156 116.355469 136.109375 116.609375 138.867188 116.449219 C 146.839844 115.984375 152.796875 112.109375 155.0625 104.257812 Z M 155.0625 104.257812 " fill-opacity="1" fill-rule="nonzero"/></g><g clip-path="url(#614097ded7)"><path fill="#c19b4a" d="M 186.933594 241.261719 C 186.933594 241.261719 187.140625 241.269531 187.480469 241.25 C 187.816406 241.269531 188.027344 241.261719 188.027344 241.261719 L 188.027344 241.195312 C 188.90625 241.082031 189.796875 241.070312 191.179688 239.925781 C 192.570312 238.777344 198.527344 236.585938 197.921875 233.429688 C 197.3125 230.273438 195.613281 232.539062 197.007812 230.292969 C 198.40625 228.046875 200.347656 226.835938 197.496094 223.550781 C 194.644531 220.277344 197.375 219.246094 197.738281 218.457031 C 198.105469 217.667969 199.804688 216.332031 195.128906 212.382812 C 192.789062 210.417969 182.167969 210.417969 179.832031 212.382812 C 175.15625 216.332031 176.855469 217.667969 177.222656 218.457031 C 177.585938 219.246094 180.316406 220.277344 177.464844 223.550781 C 174.613281 226.832031 176.550781 228.046875 177.949219 230.292969 C 179.34375 232.539062 177.644531 230.273438 177.039062 233.429688 C 176.429688 236.585938 182.386719 238.777344 183.777344 239.925781 C 185.164062 241.074219 186.050781 241.082031 186.933594 241.195312 Z M 186.933594 241.261719 " fill-opacity="1" fill-rule="nonzero"/></g><path fill="#c19b4a" d="M 182.800781 116.425781 C 182.460938 115.261719 181.820312 113.46875 181.054688 113.269531 C 180.511719 113.128906 179.8125 113.023438 179.257812 113.171875 C 179.128906 113.207031 178.871094 113.300781 178.808594 113.441406 C 178.628906 113.847656 179.457031 114.660156 179.707031 114.867188 C 180.535156 115.550781 181.648438 116.054688 182.800781 116.425781 M 190.488281 119.207031 C 190.199219 121.421875 190.113281 123.515625 190.082031 124.765625 C 189.992188 128.335938 190.148438 203.332031 190.4375 206.890625 C 190.570312 208.527344 190.722656 210.195312 190.945312 211.828125 C 191.035156 212.507812 190.554688 213.136719 189.871094 213.230469 C 189.1875 213.320312 188.566406 212.839844 188.472656 212.160156 C 188.25 210.484375 188.085938 208.777344 187.949219 207.09375 C 187.65625 203.449219 187.5 128.363281 187.589844 124.707031 C 187.625 123.351562 187.699219 121.578125 187.90625 119.6875 C 187.285156 119.730469 186.65625 119.722656 186.019531 119.660156 C 186.359375 121.875 186.535156 124.152344 186.660156 126.320312 C 186.851562 129.679688 186.898438 204.453125 186.859375 207.816406 C 186.84375 209.371094 186.816406 210.929688 186.746094 212.476562 C 186.714844 213.164062 186.128906 213.695312 185.445312 213.664062 C 184.761719 213.636719 184.222656 213.050781 184.253906 212.363281 C 184.324219 210.84375 184.347656 209.3125 184.367188 207.792969 C 184.402344 204.480469 184.359375 129.765625 184.171875 126.460938 C 184.035156 124.101562 183.839844 121.578125 183.417969 119.183594 C 181.515625 118.722656 179.554688 117.972656 178.117188 116.785156 C 176.875 115.757812 175.800781 114.058594 176.535156 112.421875 C 177.410156 110.460938 179.902344 110.390625 181.6875 110.859375 C 183.980469 111.457031 184.949219 114.609375 185.433594 116.625 C 185.472656 116.773438 185.507812 116.925781 185.539062 117.078125 C 185.59375 117.085938 185.648438 117.097656 185.699219 117.101562 C 186.566406 117.246094 187.429688 117.253906 188.269531 117.144531 C 188.957031 113.320312 190.359375 109.574219 193.242188 108.28125 C 194.667969 107.648438 196.699219 107.117188 197.90625 108.472656 C 198.808594 109.492188 198.648438 110.972656 198.226562 112.160156 C 197.730469 113.550781 196.800781 114.871094 195.78125 115.925781 C 194.289062 117.46875 192.46875 118.601562 190.488281 119.207031 Z M 196.046875 110.140625 C 195.6875 109.988281 194.550781 110.429688 194.261719 110.5625 C 192.585938 111.3125 191.585938 113.683594 190.984375 116.355469 C 192.023438 115.867188 192.988281 115.1875 193.835938 114.347656 C 194.621094 113.570312 195.375 112.574219 195.796875 111.539062 C 195.898438 111.289062 196.179688 110.429688 196.046875 110.140625 Z M 196.046875 110.140625 " fill-opacity="1" fill-rule="nonzero"/></svg>